<svg xmlns="http://www.w3.org/2000/svg" xmlns:xlink="http://www.w3.org/1999/xlink" version="1.1" x="0px" y="0px" fill="gray" viewBox="0 0 100 125" enable-background="new 0 0 100 100" xml:space="preserve"><g><path fill="#000000" d="M74.1,26.382H25.898c-5.212,0-9.448-4.24-9.448-9.452c0-5.209,4.238-9.45,9.448-9.45h48.198   c5.216,0,9.452,4.24,9.452,9.45C83.548,22.142,79.312,26.382,74.1,26.382z M25.898,10.312c-3.647,0-6.613,2.971-6.613,6.618   c0,3.648,2.966,6.618,6.613,6.618h48.198c3.647,0,6.617-2.97,6.617-6.618c0-3.647-2.97-6.618-6.617-6.618H25.898z"/></g><g><path fill="#000000" d="M74.1,59.448H25.898c-5.212,0-9.448-4.24-9.448-9.45c0-5.212,4.238-9.449,9.448-9.449h48.198   c5.216,0,9.452,4.237,9.452,9.449C83.548,55.208,79.312,59.448,74.1,59.448z M25.898,43.383c-3.647,0-6.613,2.969-6.613,6.617   s2.966,6.617,6.613,6.617h48.198c3.647,0,6.617-2.97,6.617-6.617s-2.97-6.617-6.617-6.617H25.898z"/></g><g><path fill="#000000" d="M74.1,92.52H25.898c-5.212,0-9.448-4.239-9.448-9.448c0-5.212,4.238-9.452,9.448-9.452h48.198   c5.216,0,9.452,4.24,9.452,9.452C83.548,88.28,79.312,92.52,74.1,92.52z M25.898,76.454c-3.647,0-6.613,2.97-6.613,6.617   s2.966,6.617,6.613,6.617h48.198c3.647,0,6.617-2.97,6.617-6.617s-2.97-6.617-6.617-6.617H25.898z"/></g></svg>